<mxfile host="app.diagrams.net" modified="2024-05-27T19:59:19.764Z" agent="Mozilla/5.0 (Windows NT 10.0; Win64; x64) AppleWebKit/537.36 (KHTML, like Gecko) Chrome/125.0.0.0 Safari/537.36" version="24.4.9" etag="9ZpruE4YSJUUqgDmw9sP" type="github">
  <diagram name="PÃ¡gina-1" id="NMdF5uv37MRL4kGkBGMC">
    <mxGraphModel>
      <root>
        <mxCell id="0" />
        <mxCell id="1" parent="0" />
      </root>
    </mxGraphModel>
  </diagram>
</mxfile>
